<svg xmlns="http://www.w3.org/2000/svg" width="11.775" height="16.272" viewBox="0 0 11.775 16.272"><defs><style>.a{fill:#fff;}</style></defs><path class="a" d="M380.117,134.023c.343.06.691.1,1.027.184a5.9,5.9,0,0,1,4.413,5.038,6.768,6.768,0,0,1-.471,3.139,20.65,20.65,0,0,1-2.48,4.524,34.865,34.865,0,0,1-2.45,3.141.536.536,0,0,1-.9,0,31.575,31.575,0,0,1-4.139-5.9,11.972,11.972,0,0,1-1.173-3.072,5.875,5.875,0,0,1,5.245-7.027.608.608,0,0,0,.106-.026Zm2.548,5.891a2.961,2.961,0,1,0-2.969,2.967A2.965,2.965,0,0,0,382.665,139.914Z" transform="translate(-373.816 -134.023)"/></svg>