<svg xmlns="http://www.w3.org/2000/svg" width="236.412" height="46.667" viewBox="0 0 236.412 46.667">
  <g id="Group_2472" data-name="Group 2472" transform="translate(-1095.512 -1346.272)">
    <g id="Group_2" data-name="Group 2" transform="translate(1095.512 1346.272)">
      <g id="Group_1" data-name="Group 1" transform="translate(0 0)">
        <path id="Path_1" data-name="Path 1" d="M1139.988,1370.906a22.417,22.417,0,1,1-44.362,1.724c.02-.191.04-.377.066-.565.011-.094.023-.185.037-.28q.039-.279.086-.557a22.205,22.205,0,0,1,.474-2.178c.049-.177.1-.354.148-.531.08-.266.163-.528.251-.788q.266-.784.585-1.536c.051-.126.106-.251.163-.374s.111-.251.169-.374c.071-.151.146-.3.22-.454.046-.094.091-.186.14-.277.057-.117.12-.231.18-.345.051-.1.106-.2.16-.294s.117-.211.177-.314c.074-.129.146-.254.226-.38.108-.183.223-.365.337-.545.1-.151.194-.3.3-.451.086-.129.174-.257.266-.383.034-.051.074-.105.114-.16.052-.074.106-.146.16-.22s.1-.143.157-.211c.083-.111.169-.223.257-.331.109-.143.223-.283.337-.42s.231-.277.346-.411.237-.268.36-.4.24-.263.365-.394.248-.257.377-.385.254-.251.383-.374.263-.246.394-.369.268-.24.4-.357.274-.234.411-.345.28-.229.42-.34.283-.22.428-.328a22.347,22.347,0,0,1,2.253-1.482c.157-.091.314-.177.474-.266s.32-.171.48-.254.323-.163.488-.243.326-.154.491-.228.331-.149.5-.22l.254-.1c.169-.071.337-.137.508-.2s.343-.126.514-.188.346-.117.522-.177a22.5,22.5,0,0,1,6.929-1.091h17.165l-2.932,5.1-1.35,2.45H1117.93a14.87,14.87,0,1,0,14.49,18.229h-8.457l5.1-7.375Z" transform="translate(-1095.512 -1350.723)" fill="#fff"/>
        <path id="Path_2" data-name="Path 2" d="M1252.374,1391.071h-8.331l-14.11-28.085-9.861-.014,9.807-16.7Z" transform="translate(-1184.509 -1346.272)" fill="#fff"/>
      </g>
    </g>
    <g id="Group_4" data-name="Group 4" transform="translate(1182.345 1346.272)">
      <g id="Group_3" data-name="Group 3" transform="translate(0 0)">
        <path id="Path_3" data-name="Path 3" d="M1399.649,1346.278c1.186,0,2.372.01,3.557-.005a.41.41,0,0,1,.466.325q2.73,7.551,5.478,15.1c.038.1.077.207.143.385l5.736-15.789h3.882c-.05.155-.091.3-.142.439q-3.7,10.184-7.4,20.37a.469.469,0,0,1-.536.37q-1.589-.026-3.179,0a.4.4,0,0,1-.446-.319q-3.7-10.25-7.422-20.5c-.039-.106-.089-.209-.134-.313Z" transform="translate(-1399.649 -1346.272)" fill="#fff"/>
        <path id="Path_4" data-name="Path 4" d="M1744.97,1356.887a10.561,10.561,0,1,1-10.466-10.59A10.544,10.544,0,0,1,1744.97,1356.887Zm-10.57-6.9a6.9,6.9,0,1,0,6.911,6.91A6.9,6.9,0,0,0,1734.4,1349.989Z" transform="translate(-1631.288 -1346.29)" fill="#fff"/>
        <path id="Path_5" data-name="Path 5" d="M1495.961,1349.5l-2.58,2.581a6.93,6.93,0,0,0-9.531-.16,6.912,6.912,0,0,0,6.081,11.854,6.806,6.806,0,0,0,5.21-4.947h-3.61v-3.64h7.563c0,.549,0,1.1,0,1.653a10.464,10.464,0,0,1-2.585,7.1,10.545,10.545,0,0,1-18.416-5.4,10.3,10.3,0,0,1,3.21-9.241,9.926,9.926,0,0,1,5.956-2.775,10.452,10.452,0,0,1,8.621,2.871.644.644,0,0,1,.065.068A.074.074,0,0,1,1495.961,1349.5Z" transform="translate(-1455.614 -1346.401)" fill="#fff"/>
        <path id="Path_6" data-name="Path 6" d="M1677.88,1346.294c.008.123.019.214.019.306,0,1.018-.008,2.036.006,3.053,0,.261-.073.337-.335.336-2.308-.01-4.617,0-6.926-.009a2.54,2.54,0,0,0-2.139.925,2.42,2.42,0,0,0-.331,2.683,2.374,2.374,0,0,0,2.209,1.456c.891.025,1.785-.026,2.675.016a6.029,6.029,0,0,1,5.463,3.476,6.179,6.179,0,0,1-4.167,8.777,6.6,6.6,0,0,1-1.464.157c-2.77.015-5.541.007-8.311.006-.092,0-.184-.011-.291-.018V1363.8h.372q4.139,0,8.279,0a2.543,2.543,0,1,0,0-5.086q-1.18-.024-2.361,0a6.2,6.2,0,0,1-.916-12.35,9.809,9.809,0,0,1,1.066-.061q3.384-.008,6.768,0Z" transform="translate(-1588.713 -1346.288)" fill="#fff"/>
        <path id="Path_7" data-name="Path 7" d="M1554.266,1367.462c.335-.93.648-1.8.965-2.677q3.291-9.08,6.575-18.162a.442.442,0,0,1,.512-.35c1.091.017,2.182.01,3.273,0,.164,0,.259.027.323.2q3.774,10.406,7.56,20.807c.014.039.026.078.051.153-.116.008-.214.02-.312.021-1.091,0-2.182-.005-3.273.006a.356.356,0,0,1-.4-.286q-2.748-7.592-5.513-15.178c-.031-.086-.064-.171-.122-.322-.1.248-.173.437-.243.628q-2.691,7.413-5.374,14.828a.415.415,0,0,1-.47.331c-1.059-.016-2.119-.007-3.179-.007Z" transform="translate(-1510.122 -1346.272)" fill="#fff"/>
        <path id="Path_8" data-name="Path 8" d="M1886.343,1346.359v3.665h-5.624v17.455h-3.644v-17.433h-5.6v-3.687Z" transform="translate(-1736.763 -1346.334)" fill="#fff"/>
        <path id="Path_9" data-name="Path 9" d="M1812.232,1380.675v8.732H1808.6v-12.35h12.358v3.618Z" transform="translate(-1691.842 -1368.268)" fill="#fff"/>
        <path id="Path_10" data-name="Path 10" d="M1808.566,1350.025v-3.639h14.881v3.639Z" transform="translate(-1691.818 -1346.354)" fill="#fff"/>
      </g>
    </g>
    <text id="Giải_pháp_công_nghệ_số" data-name="Giải pháp công nghệ số" transform="translate(1188.933 1388.939)" fill="#fff" font-size="13" font-family="OpenSans-Light, Open Sans" font-weight="300"><tspan x="0" y="0">Giải pháp công nghệ số</tspan></text>
  </g>
</svg>
