<svg xmlns="http://www.w3.org/2000/svg" width="16.018" height="15.982" viewBox="0 0 16.018 15.982"><defs><style>.a{fill:#fff;}</style></defs><path class="a" d="M387.014,280.6c.04-.266.07-.534.123-.8a3.483,3.483,0,0,1,.656-1.488,7.6,7.6,0,0,1,.888-.954,1.249,1.249,0,0,1,1.716.062q1.229,1.214,2.443,2.443a1.273,1.273,0,0,1-.01,1.837c-.365.379-.742.746-1.115,1.117a1.185,1.185,0,0,1-.126.1,11.706,11.706,0,0,0,5.567,5.568c.39-.394.79-.8,1.188-1.2a1.347,1.347,0,0,1,.71-.4,1.235,1.235,0,0,1,1.172.36q.94.938,1.879,1.879c.185.185.372.366.553.554a1.267,1.267,0,0,1,.062,1.732,4.344,4.344,0,0,1-2.544,1.558,4.765,4.765,0,0,1-1.785-.062,11.731,11.731,0,0,1-4.411-1.943,21.127,21.127,0,0,1-3.618-3.232,17.293,17.293,0,0,1-2.208-2.887,7.915,7.915,0,0,1-1.062-2.817c-.029-.184-.052-.369-.078-.554Z" transform="translate(-387.014 -277.048)"/></svg>