<svg xmlns="http://www.w3.org/2000/svg" width="17.249" height="11.858" viewBox="0 0 17.249 11.858"><defs><style>.a{fill:#fff;}</style></defs><g transform="translate(11.434 2.186)"><path class="a" d="M339.392,148.727l5.815,3.676V144.9Z" transform="translate(-339.392 -144.896)"/></g><g transform="translate(0 2.186)"><path class="a" d="M0,144.9V152.4l5.815-3.676Z" transform="translate(0 -144.896)"/></g><g transform="translate(0.032 0)"><path class="a" d="M17.1,80H2.006a1.065,1.065,0,0,0-1.046.917l8.592,5.661,8.592-5.661A1.065,1.065,0,0,0,17.1,80Z" transform="translate(-0.96 -80)"/></g><g transform="translate(0.034 6.668)"><g transform="translate(0 0)"><path class="a" d="M11.436,277.921l-1.525,1a.541.541,0,0,1-.593,0L7.792,277.92,1.024,282.2a1.063,1.063,0,0,0,1.044.91H17.16a1.063,1.063,0,0,0,1.044-.91Z" transform="translate(-1.024 -277.92)"/></g></g></svg>