<svg xmlns="http://www.w3.org/2000/svg" width="13.319" height="13.158" viewBox="0 0 13.319 13.158">
  <path id="home" d="M13.011,5.592h0L7.765.346a1.184,1.184,0,0,0-1.674,0L.849,5.588l-.005.005A1.183,1.183,0,0,0,1.631,7.61l.037,0h.209v3.86a1.387,1.387,0,0,0,1.385,1.385H5.314a.377.377,0,0,0,.377-.377V9.454a.633.633,0,0,1,.632-.632h1.21a.633.633,0,0,1,.632.632v3.026a.377.377,0,0,0,.377.377h2.052a1.387,1.387,0,0,0,1.385-1.385V7.612h.194a1.184,1.184,0,0,0,.838-2.02Zm-.533,1.141a.428.428,0,0,1-.3.126H11.6a.377.377,0,0,0-.377.377v4.236a.633.633,0,0,1-.632.632H8.919V9.455A1.387,1.387,0,0,0,7.533,8.069H6.323A1.387,1.387,0,0,0,4.938,9.455V12.1H3.262a.633.633,0,0,1-.632-.632V7.236a.377.377,0,0,0-.377-.377H1.675a.43.43,0,0,1-.3-.734h0L6.624.879a.43.43,0,0,1,.608,0l5.244,5.244,0,0a.431.431,0,0,1,0,.608Zm0,0" transform="translate(-0.269 0.151)" fill="#16276D" stroke="#fff" stroke-width="0.3"/>
</svg>
